<?xml version="1.0" encoding="UTF-8"?>
<svg id="Ebene_1" data-name="Ebene 1" xmlns="http://www.w3.org/2000/svg" viewBox="0 0 1000 1000">
  <defs>
    <style>
      .cls-1 {
        fill: #5acf04;
      }

      .cls-2 {
        fill: #e40072;
      }

      .cls-3 {
        fill: #f4c430;
      }

      .cls-4 {
        fill: #0b75e4;
      }
    </style>
  </defs>
  <rect class="cls-3" x="180" y="336.27" width="189.08" height="327.46"/>
  <path class="cls-4" d="M698.15,283.51c-24.85,0-45-20.14-45-45V100.36h-284.07v235.91h156.84c57.99,0,105,47.01,105,105v117.46c0,57.99-47.01,105-105,105h-156.84v235.91h165.92c157.4,0,285-127.6,285-285v-331.13h-121.85Z"/>
  <path class="cls-2" d="M369.08,336.27V100.36h-144.08c-24.85,0-45,20.15-45,45v190.91h189.08Z"/>
  <path class="cls-1" d="M180,663.73v190.91c0,24.85,20.15,45,45,45h144.08v-235.91h-189.08Z"/>
</svg>